<?xml version="1.0" encoding="utf-8"?>
<!-- Generator: Adobe Illustrator 16.0.0, SVG Export Plug-In . SVG Version: 6.00 Build 0)  -->
<!DOCTYPE svg PUBLIC "-//W3C//DTD SVG 1.1//EN" "http://www.w3.org/Graphics/SVG/1.1/DTD/svg11.dtd">
<svg version="1.1" id="图层_1" xmlns="http://www.w3.org/2000/svg" xmlns:xlink="http://www.w3.org/1999/xlink" x="0px" y="0px"
	 width="211.059px" height="93.356px" viewBox="0 0 211.059 93.356" enable-background="new 0 0 211.059 93.356"
	 xml:space="preserve">
<path fill="#C3261F" d="M83.287,29.135c-4.594-9.852-17.529-14.217-32.602-12.353c10.41-0.347,18.982,3.181,22.248,10.182
	c5.283,11.331-5.334,27.467-23.717,36.036c-18.383,8.574-37.569,6.338-42.853-4.993c-3.127-6.706-0.684-15.093,5.642-22.601
	C1.733,45.537-2.72,57.687,1.705,67.179c6.564,14.074,30.147,16.969,52.676,6.463C76.91,63.138,89.852,43.21,83.287,29.135z"/>
<path fill="#C3261F" d="M15.09,25.668c0.688,0,1.354-0.085,1.992-0.244c0.275-0.069,0.547-0.152,0.813-0.249
	c0.355-0.13,0.701-0.284,1.031-0.459c2.582-1.373,4.336-4.09,4.336-7.221c0,2.283,0.934,4.346,2.441,5.828
	c1.475,1.451,3.498,2.345,5.732,2.345c-4.518,0-8.174,3.655-8.174,8.172c0-2.611-1.221-4.935-3.125-6.43
	C18.748,26.318,16.996,25.668,15.09,25.668z"/>
<polyline fill="#C3261F" points="12.881,93.356 67.932,35.082 35.697,40.081 61.729,0 12.157,55.715 39.818,50.894 12.881,93.356 
	"/>
<g>
	<path fill="#1A1A1A" stroke="#1A1A1A" stroke-width="2" stroke-miterlimit="10" d="M101.189,35.419h3.512v26.669h-6.275V38.076
		h-4.203l6.736-19.852h6.333L101.189,35.419z M123.066,33.264l-8.348,28.825h-6.506l8.406-28.825h-10.824l5.191-5.113h7.152
		l2.942-10.077h6.459l-2.941,10.077h21.729v5.113h-8.924v23.763h9.672l-3.166,5.063h-12.781V33.264H123.066z M139.475,23.639
		l-6.045,3.509v-8.422h6.045V23.639z"/>
	<path fill="#1A1A1A" stroke="#1A1A1A" stroke-width="2" stroke-miterlimit="10" d="M177.242,18.224h6.275v3.208h21.532v5.164
		h-21.532v6.166h19.172v5.164h-45.943l4.606-5.164h15.89v-6.166h-22.684l4.605-5.164h18.078V18.224z M196.925,62.089h-38.394V42.137
		h43.755v15.24L196.925,62.089z M196.011,47.25h-31.204v9.776h31.204V47.25z"/>
</g>
<g>
	<path fill="#1A1A1A" d="M109.146,80.609v-4.987l-4.931-7.254h2.324l3.684,5.667l3.684-5.667h2.267l-5.044,7.254v4.987H109.146z"/>
	<path fill="#1A1A1A" d="M132.553,80.836c-3.779-0.227-5.781-2.304-6.008-6.233c0.188-4.081,2.21-6.215,6.064-6.404
		c3.702,0.227,5.686,2.361,5.95,6.404C138.37,78.569,136.368,80.646,132.553,80.836z M132.553,79.646
		c2.568-0.113,3.891-1.793,3.967-5.043c-0.113-3.25-1.417-4.949-3.91-5.102c-2.532,0.227-3.873,1.928-4.024,5.102
		C128.698,77.776,130.021,79.458,132.553,79.646z"/>
	<path fill="#1A1A1A" d="M149.781,80.609V68.368h1.984v6.461l6.12-6.461h2.606l-5.1,5.157l5.44,7.084h-2.38l-4.365-5.724
		l-2.322,2.437v3.287H149.781z"/>
	<path fill="#1A1A1A" d="M171.488,80.609V68.368h1.927v12.241H171.488z"/>
	<path fill="#1A1A1A" d="M184.92,80.609V68.368h1.983l6.461,9.521v-9.521h1.927v12.241h-1.87l-6.518-9.294v9.294H184.92z"/>
</g>
<g>
</g>
<g>
</g>
<g>
</g>
<g>
</g>
<g>
</g>
<g>
</g>
</svg>
